<!DOCTYPE svg PUBLIC "-//W3C//DTD SVG 1.1//EN" "http://www.w3.org/Graphics/SVG/1.1/DTD/svg11.dtd">
<!-- Uploaded to: SVG Repo, www.svgrepo.com, Transformed by: SVG Repo Mixer Tools -->
<svg fill="#000000" height="64px" width="64px" version="1.1" id="Layer_1" xmlns="http://www.w3.org/2000/svg" xmlns:xlink="http://www.w3.org/1999/xlink" viewBox="0 0 512.06 512.06" xml:space="preserve">
<g id="SVGRepo_bgCarrier" stroke-width="0"/>
<g id="SVGRepo_tracerCarrier" stroke-linecap="round" stroke-linejoin="round"/>
<g id="SVGRepo_iconCarrier"> <g transform="translate(0 -1)"> <g> <g> <path d="M317.105,281.695l11.989-11.998c1.596-1.596,2.5-3.772,2.5-6.042c0-2.261-0.913-4.437-2.517-6.042l-20.821-20.719 l23.202-25.958c6.016,3.243,12.467,5.487,19.081,6.383c5.069,0.683,9.011,0.811,12.169,0.913c7.066,0.23,8.755,0.282,15.36,6.306 c-3.328,2.901-5.231,6.98-5.393,11.503c-0.154,4.796,1.707,9.498,5.12,12.902l30.165,30.174c4.83,4.83,11.264,7.501,18.099,7.501 c6.844,0,13.278-2.671,18.099-7.501l60.339-60.339c4.838-4.838,7.501-11.273,7.501-18.099c0-6.844-2.662-13.278-7.501-18.108 l-30.174-30.182c-3.234-3.226-7.518-5.001-12.075-5.001h-0.205c-4.608,0.06-8.892,1.92-11.998,4.855 c-6.118-6.153-6.17-7.817-6.4-14.848c-0.111-3.166-0.247-7.1-0.93-12.143c-1.681-12.348-7.663-24.192-16.836-33.365 l-31.095-31.104c-18.227-18.219-27.238-26.709-49.843-37.009c-49.468-22.528-99.891-18.5-174.063,13.841 c-3.712,1.621-5.769,5.606-4.941,9.566c0.819,3.959,4.301,6.793,8.346,6.793l10.906-0.051 c38.323-0.282,57.498-0.427,91.674,33.749c16.154,16.162,15.36,41.318-1.826,58.522c-0.06,0.06-0.077,0.137-0.137,0.196 c-0.06,0.068-0.145,0.085-0.196,0.154l-26.846,30.046L82.456,11.188c-13.568-13.577-35.661-13.577-49.254,0L10.204,34.202 c-13.577,13.577-13.577,35.652,0,49.229l169.463,169.472L10.528,442.19c-6.605,6.596-10.334,15.292-10.522,24.482 c-0.179,9.327,3.294,18.039,9.788,24.516l12.066,12.075c6.323,6.332,14.754,9.788,23.808,9.788c0.23,0,0.478,0,0.708-0.009 c9.19-0.179,17.894-3.917,24.815-10.863L240.066,313.2l16.794,16.7c1.664,1.655,3.84,2.483,6.016,2.483 c2.185,0,4.369-0.836,6.033-2.5l11.981-11.981l142.746,142.925l37.931-34.483L317.105,281.695z M45.225,58.283 c-3.336-3.337-3.336-8.73,0-12.066c3.337-3.336,8.738-3.336,12.066,0l145.067,145.067c3.337,3.337,3.337,8.73,0,12.066 c-1.664,1.664-3.849,2.5-6.033,2.5c-2.185,0-4.369-0.836-6.033-2.5L45.225,58.283z M233.334,295.118 c-0.009,0.008-0.009,0.026-0.017,0.034L58.793,490.463c-3.465,3.465-7.996,5.419-12.757,5.521 c-4.599-0.017-8.926-1.604-12.109-4.796L21.86,479.122c-3.183-3.174-4.881-7.475-4.796-12.109 c0.102-4.762,2.065-9.284,5.862-13.107l258.492-289.263l35.849,35.849l0.333,0.333l-27.452,30.729c0,0-0.009,0-0.017,0.009 L233.334,295.118z M262.859,311.8L251.45,300.46l29.303-32.785l16.111-18.031l14.114,14.037L262.859,311.8z"/> <path d="M511.984,503.386l-5.581-41.796c-0.324-2.406-1.664-4.565-3.678-5.931l-27.529-18.637l-40.67,36.975l20.685,30.268 c1.382,2.031,3.575,3.354,6.007,3.652l41.267,5.069c0.35,0.043,0.7,0.068,1.041,0.068c2.261,0,4.446-0.905,6.067-2.534 C511.447,508.642,512.334,506.005,511.984,503.386z"/> </g> </g> </g> </g>
</svg>